# xmcd CD database file
#
# Track frame offsets:
#	150
#	17909
#	43369
#	80004
#	90099
#	103348
#	116612
#	138642
#	152693
#	190906
#	241257
#
# Disc length: 3553 seconds
#
# Revision: 3
# Processed by: cddbd v1.5.2PL0 Copyright (c) Steve Scherf et al.
# Submitted via: CDex 1.70beta2
#
DISCID=900ddf0b
DTITLE=Doors - Live At The Matrix '67 2
DYEAR=2008
DGENRE=Classic Rock
TTITLE0=Unhappy Girl
TTITLE1=Moonlight Drive
TTITLE2=The Woman Is A Devil/Rock Me
TTITLE3=People Are Strange
TTITLE4=Close To You
TTITLE5=My Eyes Have Seen You
TTITLE6=Crawling King Snake
TTITLE7=I Can't See Your Face In My Mind
TTITLE8=Summertime
TTITLE9=When The Music's Over
TTITLE10=Gloria
EXTD=Composer: Jim Morrison, Ray Manzarek, Robby Krieger, John Densmore YEAR: 2008
EXTT0=
EXTT1=
EXTT2=
EXTT3=
EXTT4=
EXTT5=
EXTT6=
EXTT7=
EXTT8=
EXTT9=
EXTT10=
PLAYORDER=
